<?xml version="1.0" encoding="UTF-8"?>
<svg id="Layer_1" xmlns="http://www.w3.org/2000/svg" version="1.1" viewBox="0 0 262.97 150.97">
  <!-- Generator: Adobe Illustrator 29.1.0, SVG Export Plug-In . SVG Version: 2.1.0 Build 142)  -->
  <path d="M166.04,137.05c.58.06,1.27-.11,1.82,0,.99.19,3.08,4.89,3.92,5.88,1.04,0,3.08-5.38,3.83-5.82.43-.25,1.61.05,2.18-.06v10.08h-2.24v-5.88c-1.32.72-2.57,5.98-4.34,4.48-.62-.53-1.94-3.29-2.39-4.19-.28-.12-.56.65-.56.7v4.9l-1.78-.04-.46-.38v-9.66Z"/>
  <path d="M259.28,137.05v10.08h-2.24v-5.88c-1.12.62-2.47,4.67-3.51,4.78-1.11.12-2.51-3.22-3.15-4.13-.17-.25.05-.52-.62-.37v5.6l-1.78-.04-.46-.38v-9.66c.76.07,1.79-.25,2.38.28s2.95,5.5,3.36,5.6c.39.09.48-.23.65-.46.62-.83,2.76-5.06,3.12-5.28.55-.34,1.6-.06,2.24-.14Z"/>
  <path d="M42.44,137.05c3.11.62,3.66,5.45.71,6.89l1.95,3.19c-3.71.95-2.79-3.73-6.44-2.8v2.8s-2.52,0-2.52,0v-10.08c1.85.25,4.58-.35,6.3,0ZM38.65,142.37c5.19.86,5.6-4.2.26-3.52l-.26,3.52Z"/>
  <path d="M75.47,137.05c3.22.57,3.92,5.2.96,6.62l1.98,3.46c-3.26.81-2.72-1.39-4.06-2.52-.64-.53-1.6-.21-2.38-.28l-.26,2.68-2.26.12v-10.08c1.81.22,4.3-.31,6.02,0ZM75.55,139.35l-3.58-.63v3.64c2.32.21,4.93-.05,3.58-3.02Z"/>
  <path d="M61.24,145.63c-2.79,2.99-9.25,1.63-9.7-2.84-.36-3.53,1.94-5.97,5.45-6.04,4.73-.1,7.61,5.28,4.25,8.88ZM56.51,138.79c-3.56.51-3.56,5.91-.04,6.35,5.2.66,4.82-7.04.04-6.35Z"/>
  <path d="M133.15,137.05c3.12.55,3.7,5.51.71,6.86l2.23,3.22c-3.92,1.08-2.93-3.69-6.72-2.8v2.8s-2.24,0-2.24,0v-10.08c1.81.22,4.3-.31,6.02,0ZM132.93,142.01c2.39-1.93-1.61-3.98-3.56-3.28v3.64c1.02-.11,2.74.3,3.56-.37Z"/>
  <polygon points="224 137.05 224 138.73 218.82 138.73 218.44 139.19 218.4 140.97 223.16 140.97 223.16 142.93 218.4 142.93 218.4 145.17 224 145.17 224 147.13 216.16 147.13 216.16 137.05 224 137.05"/>
  <path d="M187.6,137.05v6.86c0,1.72,4.48,1.78,4.48-.56v-6.3h2.24v7.14c0,.08-.68,1.19-.84,1.4-1.73,2.29-6.07,2.22-7.69-.15-.14-.21-.71-1.42-.71-1.53v-6.86h2.52Z"/>
  <path d="M13.46,147.13l-2.48-.04-1.06-2.16-4.6.13-.8,1.94-2.25.13,4.24-10.03,2.62.23,4.33,9.8ZM9.26,143.21c-.02-.48-1.29-3.92-1.68-3.64l-1.4,3.22c.04.66,2.5.37,3.07.42Z"/>
  <path d="M116.44,137.1l4.52,10.03-2.53-.13-.8-1.94-4.6-.13-1.06,2.16-2.49.03,4.33-9.8,2.62-.23ZM113.69,143.21c.58-.05,3.03.24,3.07-.42l-1.4-3.22c-.38-.28-1.91,3.41-1.68,3.64Z"/>
  <path d="M90.97,137.1l4.24,10.03-2.24-.13-.87-2.07h-4.54s-1.06,2.17-1.06,2.17l-2.49.03,4.23-10.05h2.72ZM89.89,139.57c-.49-.46-.47.17-.58.4-.2.4-1.25,3.09-1.09,3.24h2.8c.2-.2-.97-3.49-1.12-3.64Z"/>
  <path d="M21.86,137.05v6.02c0,1.85,2.87,2.94,4.05,1.53.15-.18.71-1.66.71-1.81v-5.74h2.24v6.58c0,.1-.49,1.45-.6,1.64-1.17,2.05-4.7,2.49-6.66,1.41-.48-.27-1.98-2.07-1.98-2.5v-7.14h2.24Z"/>
  <path d="M233.24,137.05v5.46c0,.12.48,1.77.59,1.93.94,1.52,4.17.75,4.17-1.37v-6.02h2.24v6.86c0,.11-.57,1.32-.71,1.53-1.65,2.42-6.16,2.42-7.81,0-.14-.21-.71-1.42-.71-1.53v-6.86h2.24Z"/>
  <path d="M208.87,137.34l-.27,1.95c-1-.33-5.05-1.25-5.05.42,0,2.01,6.29.69,5.91,4.76-.34,3.57-6.12,3.01-8.41,1.81l.56-1.96c1.79.74,4.08,1.97,5.58.11.33-1.95-6.01-.68-5.89-4.73.11-3.51,5.19-3.27,7.58-2.37Z"/>
  <path d="M150.65,137.05v1.68c-.23.23-2.93-.44-3.36.42v7.98h-2.24v-7.98c-.43-.86-3.13-.18-3.36-.42v-1.68h8.96Z"/>
  <path d="M207.62,126.97L166.29,2.98h-2.02s-39.79,118.95-39.79,118.95L84.16,2.08l-2.11.51-41.16,124.38h-16.24v3.08h41.58c.8-.74.29-2.08.42-3.08h-22.4l11.93-36.13,37.91.15,12.31,35.98h-19.32v3.08h61.31v-3.08h-22.12l12.17-35.86,37.4.15,12.03,35.71h-18.9c-.53.36-.44.97-.44,1.54,0,.36-.02.72.06,1.08l.38.46h54.74v-3.08h-16.1ZM57.41,87.77l17.5-53.2,18.34,53.2h-35.84ZM139.45,88.05l17.64-52.92,17.64,52.92h-35.28Z"/>
</svg>